<?xml version="1.0" encoding="utf-8"?>
<!-- Generator: Adobe Illustrator 16.0.0, SVG Export Plug-In . SVG Version: 6.00 Build 0)  -->
<!DOCTYPE svg PUBLIC "-//W3C//DTD SVG 1.1//EN" "http://www.w3.org/Graphics/SVG/1.1/DTD/svg11.dtd">
<svg version="1.1" id="Layer_1" xmlns="http://www.w3.org/2000/svg" xmlns:xlink="http://www.w3.org/1999/xlink" x="0px" y="0px"
	 width="100px" height="100px" viewBox="0 0 100 100" enable-background="new 0 0 100 100" xml:space="preserve">
<g>
	<rect x="15.033" y="37.878" fill="#A0B63B" width="15.003" height="48.211"/>
	<path fill="#A0B63B" d="M86.155,86.089V59.65c0-12.985-2.8-22.967-17.977-22.967c-7.29,0-12.174,3.994-14.182,7.786h-0.199v-6.592
		H39.435v48.211h14.965v-23.85c0-6.286,1.194-12.381,8.989-12.381c7.689,0,7.787,7.192,7.787,12.786v23.444H86.155z"/>
	<path fill="#A0B63B" d="M22.544,13.911c-4.813,0-8.699,3.895-8.699,8.693c0,4.793,3.886,8.688,8.699,8.688
		c4.79,0,8.682-3.895,8.682-8.688C31.226,17.806,27.334,13.911,22.544,13.911z"/>
</g>
</svg>
