<?xml version="1.0" encoding="utf-8"?>
<!-- Generator: Adobe Illustrator 16.0.0, SVG Export Plug-In . SVG Version: 6.00 Build 0)  -->
<!DOCTYPE svg PUBLIC "-//W3C//DTD SVG 1.1//EN" "http://www.w3.org/Graphics/SVG/1.1/DTD/svg11.dtd">
<svg version="1.1" id="Layer_1" xmlns="http://www.w3.org/2000/svg" xmlns:xlink="http://www.w3.org/1999/xlink" x="0px" y="0px"
	 width="100px" height="100px" viewBox="0 0 100 100" enable-background="new 0 0 100 100" xml:space="preserve">
<path fill="#A0B63B" d="M92.428,23.682c-3.119,1.385-6.475,2.322-9.996,2.741c3.592-2.154,6.354-5.564,7.654-9.629
	c-3.363,1.993-7.092,3.443-11.057,4.224c-3.176-3.384-7.701-5.498-12.707-5.498c-9.615,0-17.411,7.795-17.411,17.41
	c0,1.362,0.156,2.691,0.452,3.968c-14.469-0.728-27.298-7.66-35.885-18.191c-1.497,2.571-2.354,5.559-2.354,8.752
	c0,6.04,3.073,11.367,7.742,14.49c-2.853-0.091-5.535-0.872-7.883-2.178c-0.003,0.074-0.003,0.144-0.003,0.22
	c0,8.435,6.002,15.469,13.968,17.071c-1.462,0.399-3,0.61-4.59,0.61c-1.121,0-2.213-0.111-3.275-0.312
	c2.216,6.915,8.646,11.945,16.265,12.086c-5.958,4.673-13.465,7.455-21.622,7.455c-1.406,0-2.791-0.082-4.153-0.24
	c7.704,4.937,16.855,7.818,26.688,7.818c32.023,0,49.533-26.526,49.533-49.534c0-0.754-0.018-1.506-0.049-2.251
	C87.145,30.241,90.094,27.174,92.428,23.682L92.428,23.682z"/>
</svg>
