<?xml version="1.0" encoding="utf-8"?>
<!-- Generator: Adobe Illustrator 16.0.0, SVG Export Plug-In . SVG Version: 6.00 Build 0)  -->
<!DOCTYPE svg PUBLIC "-//W3C//DTD SVG 1.1//EN" "http://www.w3.org/Graphics/SVG/1.1/DTD/svg11.dtd">
<svg version="1.1" id="Layer_1" xmlns="http://www.w3.org/2000/svg" xmlns:xlink="http://www.w3.org/1999/xlink" x="0px" y="0px"
	 width="100px" height="100px" viewBox="0 0 100 100" enable-background="new 0 0 100 100" xml:space="preserve">
<g>
	<rect x="15.033" y="37.878" fill="#593C26" width="15.003" height="48.212"/>
	<path fill="#593C26" d="M86.154,86.09V59.65c0-12.985-2.799-22.967-17.977-22.967c-7.289,0-12.174,3.994-14.182,7.786h-0.199
		v-6.592H39.435v48.211H54.4v-23.85c0-6.287,1.193-12.381,8.988-12.381c7.689,0,7.787,7.192,7.787,12.786v23.444h14.979V86.09z"/>
	<path fill="#593C26" d="M22.544,13.911c-4.813,0-8.699,3.896-8.699,8.693c0,4.793,3.886,8.688,8.699,8.688
		c4.79,0,8.682-3.895,8.682-8.688C31.226,17.806,27.334,13.911,22.544,13.911z"/>
</g>
</svg>
